<?xml version="1.0" encoding="utf-8"?>
<!-- Generator: Adobe Illustrator 16.0.0, SVG Export Plug-In . SVG Version: 6.00 Build 0)  -->
<!DOCTYPE svg PUBLIC "-//W3C//DTD SVG 1.1//EN" "http://www.w3.org/Graphics/SVG/1.1/DTD/svg11.dtd">
<svg version="1.1" id="Layer_1" xmlns="http://www.w3.org/2000/svg" xmlns:xlink="http://www.w3.org/1999/xlink" x="0px" y="0px"
	 width="100px" height="100px" viewBox="0 0 100 100" enable-background="new 0 0 100 100" xml:space="preserve">
<g>
	<path fill-rule="evenodd" clip-rule="evenodd" d="M43.163,100c-4.82-1.019-7.978-4.275-10.739-8.032
		c-3.68-5.008-6.339-10.59-8.993-16.171c-2.26-4.755-4.514-9.513-6.82-14.245c-0.538-1.104-1.261-2.122-1.927-3.162
		c-1.371-2.143-1.993-4.466-1.501-6.978c0.604-3.077,2.489-5.129,5.466-6.045c3.083-0.949,5.948-0.452,8.324,1.845
		c1.708,1.651,3.324,3.396,4.976,5.104c0.221,0.229,0.409,0.488,0.817,0.631c0.015-0.339,0.042-0.678,0.043-1.017
		c0.002-10.938-0.006-21.875,0.006-32.812c0.004-3.721,2.566-6.971,6.199-7.942c3.626-0.971,7.564,0.652,9.414,3.874
		c0.767,1.336,1.045,2.775,1.04,4.307c-0.019,5.403-0.007,10.807-0.007,16.21c0,0.411,0,0.821,0,1.259
		c6.268-1.77,9.099-0.71,12.126,4.515c2.265-1.297,4.672-1.7,7.184-0.842c2.474,0.846,4.2,2.532,5.167,4.827
		c1.377-0.359,2.687-0.88,4.036-1.022c4.693-0.494,8.934,3.253,8.97,7.958c0.06,7.648,0.049,15.299,0,22.948
		c-0.05,7.768-3.502,13.922-9.21,18.959c-2.751,2.428-5.875,4.273-9.18,5.832C60.09,100,51.627,100,43.163,100z"/>
	<path fill-rule="evenodd" clip-rule="evenodd" d="M42.967,0c1.385,0.315,2.798,0.544,4.151,0.962
		c9.018,2.789,14.776,11.1,14.182,20.497c-0.24,3.794-1.595,7.214-3.867,10.255c-0.182,0.242-0.682,0.377-1.016,0.348
		c-0.897-0.077-1.785-0.271-2.76-0.431c0-2.56,0.038-5.093-0.012-7.625c-0.049-2.532,0.108-5.116-0.345-7.581
		c-1.136-6.172-6.941-10.161-13.539-9.602c-5.882,0.499-10.931,5.748-11.063,11.723c-0.12,5.399-0.035,10.803-0.04,16.204
		c0,0.316,0,0.633,0,1.228c-0.796-0.645-1.467-1.087-2.016-1.647c-5.603-5.729-7.5-12.53-5.117-20.169
		c2.367-7.588,7.787-12.086,15.538-13.778C37.726,0.238,38.396,0.127,39.061,0C40.363,0,41.665,0,42.967,0z"/>
</g>
</svg>
