<?xml version="1.0" encoding="utf-8"?>
<!-- Generator: Adobe Illustrator 16.0.0, SVG Export Plug-In . SVG Version: 6.00 Build 0)  -->
<!DOCTYPE svg PUBLIC "-//W3C//DTD SVG 1.1//EN" "http://www.w3.org/Graphics/SVG/1.1/DTD/svg11.dtd">
<svg version="1.1" id="Layer_1" xmlns="http://www.w3.org/2000/svg" xmlns:xlink="http://www.w3.org/1999/xlink" x="0px" y="0px"
	 width="200px" height="200px" viewBox="0 0 200 200" enable-background="new 0 0 200 200" xml:space="preserve">
<title>logo</title>
<desc>Created with Sketch.</desc>
<g id="Symbols">
	<g id="logo">
		<g id="Group" transform="translate(24.000000, 22.000000)">
			<path id="Combined-Shape" d="M0.249,95h1.023c7.553,34.598,38.366,60.5,75.228,60.5s67.675-25.902,75.229-60.5h1.023
				c-7.571,35.153-38.835,61.5-76.252,61.5S7.819,130.153,0.249,95z M0.04,63C7.229,27.347,38.729,0.5,76.5,0.5
				c37.771,0,69.271,26.847,76.46,62.5h-1.021C144.767,27.903,113.717,1.5,76.5,1.5S8.233,27.903,1.061,63H0.04z"/>
			<g enable-background="new    ">
				<path d="M82.055,79.8c0.036,0.185,0.018,0.34-0.055,0.468c-0.074,0.129-0.092,0.247-0.055,0.357
					c0.183,0.697,0.146,1.32-0.11,1.87c-0.257,0.55-0.532,1.1-0.825,1.649c-0.184,0.44-0.404,0.872-0.66,1.293
					c-0.257,0.422-0.531,0.89-0.824,1.402c-0.185,0.257-0.386,0.495-0.605,0.715c-0.221,0.221-0.422,0.44-0.605,0.66
					c-0.184,0.257-0.385,0.505-0.604,0.742c-0.22,0.239-0.422,0.487-0.604,0.743c-0.404,0.514-0.845,0.972-1.321,1.375
					c-0.477,0.403-0.88,0.861-1.21,1.375c-0.294,0.439-0.697,0.861-1.21,1.265c-0.624,0.478-1.219,0.936-1.788,1.375
					c-0.569,0.44-1.146,0.88-1.732,1.32c-0.147,0.074-0.284,0.129-0.412,0.165c-0.129,0.037-0.267,0.092-0.413,0.165
					c0.073,0.257-0.019,0.459-0.275,0.604c-0.294,0.221-0.569,0.395-0.825,0.522c-0.257,0.129-0.532,0.267-0.825,0.413
					c-0.294,0.146-0.559,0.349-0.797,0.604c-0.239,0.257-0.504,0.478-0.797,0.66c-0.147,0.184-0.312,0.321-0.495,0.412
					c-0.184,0.093-0.367,0.175-0.55,0.248c-0.477,0.184-0.935,0.376-1.375,0.577c-0.44,0.202-0.844,0.486-1.21,0.853
					c-0.257,0.221-0.56,0.385-0.908,0.495c-0.349,0.11-0.688,0.257-1.018,0.44c-0.184,0.073-0.367,0.146-0.55,0.22
					c-0.184,0.074-0.385,0.146-0.605,0.22c-0.367,0.147-0.707,0.312-1.018,0.495c-0.312,0.184-0.651,0.33-1.018,0.44
					c-0.404,0.183-0.807,0.348-1.21,0.495c-0.404,0.146-0.807,0.293-1.21,0.439c-0.184,0.073-0.376,0.165-0.578,0.275
					c-0.202,0.109-0.413,0.201-0.632,0.274c-0.22,0.073-0.477,0.156-0.77,0.248c-0.294,0.091-0.55,0.174-0.77,0.247
					c-0.477,0.11-0.944,0.248-1.402,0.413c-0.459,0.165-0.945,0.283-1.458,0.357c-0.11,0.036-0.294,0.055-0.55,0.055
					c0,0.146-0.019,0.256-0.055,0.33c-0.257,0.66-0.129,1.265,0.385,1.814c0.036,0.073,0.083,0.138,0.138,0.193
					c0.055,0.055,0.118,0.155,0.192,0.302c-0.257,0.073-0.477,0.092-0.66,0.056c-0.184-0.037-0.357-0.102-0.522-0.192
					c-0.165-0.093-0.33-0.193-0.495-0.303c-0.165-0.11-0.321-0.202-0.467-0.275c-0.147-0.037-0.257-0.165-0.33-0.385
					c-0.074-0.22-0.147-0.44-0.22-0.66c-0.074-0.146-0.211-0.257-0.412-0.33c-0.202-0.073-0.285-0.184-0.248-0.33
					c-0.624,0.11-1.219,0.174-1.788,0.192c-0.568,0.019-1.164-0.119-1.788-0.412c-0.403-0.22-0.806-0.449-1.21-0.688
					c-0.403-0.239-0.806-0.486-1.21-0.742c-0.183-0.037-0.311-0.092-0.385-0.165c-0.073-0.074-0.055-0.185,0.055-0.33
					c0.074-0.074,0.037-0.185-0.11-0.33c-0.44-0.33-0.806-0.715-1.1-1.155c-0.293-0.439-0.55-0.916-0.77-1.43
					c-0.183-0.403-0.366-0.807-0.55-1.21c-0.183-0.403-0.311-0.843-0.385-1.32c-0.073-0.403-0.11-0.788-0.11-1.155
					c0-0.365-0.018-0.751-0.055-1.154c0-0.073-0.008-0.138-0.027-0.192c-0.018-0.056-0.027-0.119-0.027-0.193
					c0-0.146,0.037-0.293,0.11-0.439c0-0.073,0.019-0.146,0.055-0.22c0.037-0.073,0.074-0.146,0.11-0.221
					c0.074-0.146,0.129-0.293,0.165-0.439c0.037-0.146-0.036-0.293-0.22-0.44c0-0.036,0.028-0.109,0.083-0.22
					c0.055-0.11,0.12-0.201,0.192-0.275c0.074,0.074,0.147,0.185,0.22,0.33l0.11,0.056c0.22-0.514,0.45-1.054,0.688-1.623
					c0.239-0.568,0.468-1.108,0.688-1.622c0.184,0.184,0.22,0.357,0.11,0.522c-0.11,0.165-0.165,0.339-0.165,0.522
					c0,0.257-0.036,0.568-0.11,0.935c0,0.257-0.036,0.44-0.11,0.55c-0.146,0.221-0.21,0.404-0.192,0.551
					c0.019,0.146,0.192,0.238,0.522,0.274c-0.44,0.917-0.513,1.815-0.22,2.695v0.165c-0.146,0.33-0.173,0.651-0.083,0.962
					c0.092,0.312,0.193,0.615,0.303,0.908c0.184,0.514,0.459,0.917,0.825,1.21c0.367,0.294,0.789,0.439,1.265,0.439
					c0.184,0,0.395,0,0.633,0c0.239,0,0.449-0.018,0.632-0.055c0.11-0.073,0.211-0.155,0.303-0.247
					c0.092-0.092,0.192-0.174,0.302-0.248c0.294,0.33,0.596,0.486,0.908,0.468s0.632-0.083,0.962-0.192
					c0.293-0.073,0.568-0.11,0.825-0.11c0.036-0.22,0.064-0.439,0.083-0.66c0.018-0.22,0.064-0.476,0.138-0.77
					c0.036-0.293,0.063-0.578,0.083-0.853c0.018-0.275,0.063-0.559,0.138-0.853c0.183-0.771,0.348-1.549,0.495-2.338
					c0.146-0.788,0.311-1.604,0.495-2.447c0.183-0.843,0.385-1.687,0.605-2.53c0.22-0.843,0.44-1.686,0.66-2.529
					c0.183-0.587,0.375-1.183,0.577-1.788c0.201-0.604,0.394-1.2,0.578-1.787c0.366-0.99,0.706-1.98,1.018-2.971
					c0.311-0.989,0.65-2.016,1.018-3.079c-0.514,0.329-0.926,0.376-1.238,0.137c-0.312-0.237-0.651-0.613-1.017-1.127
					c0-0.146-0.055-0.275-0.165-0.385c-0.11-0.184-0.211-0.366-0.303-0.551C48,76.207,48.01,75.987,48.12,75.73v-0.11v-0.055
					c-0.294-0.11-0.422-0.294-0.385-0.551c0.036-0.256,0-0.476-0.11-0.659c-0.037-0.036-0.037-0.101,0-0.193
					c0.036-0.091,0.091-0.155,0.165-0.192c0.293-0.22,0.595-0.439,0.907-0.66c0.311-0.22,0.633-0.421,0.962-0.604
					c0.44-0.256,0.88-0.495,1.32-0.715c0.44-0.221,0.861-0.458,1.265-0.715c0.366-0.146,0.678-0.293,0.935-0.44
					c0.256-0.146,0.531-0.312,0.825-0.495c0.33-0.88,0.715-1.814,1.155-2.805c0.036-0.073,0.101-0.275,0.193-0.605
					c0.091-0.33,0.192-0.66,0.302-0.989c0.293-0.771,0.605-1.521,0.935-2.256c0.293-0.623,0.586-1.311,0.88-2.062
					c0.293-0.751,0.586-1.438,0.88-2.062c0.183-0.476,0.412-0.935,0.688-1.375c0.275-0.439,0.541-0.88,0.797-1.319
					c0.146-0.33,0.33-0.541,0.55-0.633c0.22-0.091,0.476-0.101,0.77-0.027c0.256,0.074,0.522,0.119,0.797,0.138
					c0.275,0.019,0.541,0.064,0.798,0.138c0.073,0.036,0.146,0.055,0.22,0.055c0.073,0,0.146,0.019,0.22,0.055
					c0.293,0.257,0.614,0.486,0.962,0.688c0.348,0.202,0.614,0.468,0.797,0.798c0.11,0.146,0.238,0.294,0.385,0.439
					c0.146,0.147,0.266,0.312,0.357,0.495c0.091,0.185,0.138,0.395,0.138,0.633c0,0.239-0.11,0.486-0.33,0.742v0.056
					c0,0.073,0.018,0.109,0.055,0.109c0.293,0.367,0.348,0.697,0.165,0.99c-0.184,0.294-0.459,0.569-0.825,0.825
					c-0.074,0-0.11,0.037-0.11,0.109c-0.11,0.147-0.266,0.386-0.467,0.716c-0.202,0.329-0.422,0.696-0.66,1.1
					c-0.239,0.404-0.477,0.807-0.715,1.21c-0.239,0.404-0.449,0.752-0.632,1.045c0.403-0.293,0.806-0.613,1.21-0.963
					c0.403-0.348,0.788-0.688,1.155-1.017c0.476-0.33,0.953-0.669,1.43-1.018c0.476-0.349,0.935-0.706,1.375-1.073
					c0.403-0.402,0.825-0.788,1.265-1.154c0.44-0.366,0.861-0.751,1.265-1.155c0.293-0.293,0.559-0.577,0.798-0.853
					c0.238-0.275,0.485-0.559,0.742-0.853c0.366-0.366,0.724-0.715,1.073-1.045c0.348-0.33,0.688-0.696,1.017-1.1
					c0.293-0.294,0.578-0.614,0.853-0.963c0.275-0.348,0.522-0.724,0.743-1.128c0.403-0.695,0.815-1.355,1.237-1.979
					c0.421-0.623,0.651-1.338,0.688-2.146V47.9c-0.037-0.073-0.092-0.165-0.165-0.275c-0.074-0.11-0.147-0.183-0.22-0.22
					c-0.331-0.073-0.697-0.092-1.101-0.056c-0.404,0.037-0.752,0.02-1.045-0.055c-0.22,0-0.422,0-0.605,0
					c-0.184,0-0.367,0.019-0.55,0.055c-0.257,0-0.495,0.01-0.715,0.028c-0.22,0.019-0.459,0.027-0.715,0.027
					c-0.11,0-0.239,0.037-0.385,0.109c-0.293,0.185-0.605,0.294-0.935,0.33c-0.33,0.074-0.725,0.185-1.183,0.33
					c-0.459,0.147-0.872,0.257-1.238,0.33c-0.44,0.074-0.834,0.229-1.182,0.468c-0.349,0.238-0.743,0.412-1.183,0.522
					c-0.22,0.074-0.422,0.129-0.605,0.165c-0.184,0.037-0.385,0.092-0.605,0.165c0.073,0.22,0.146,0.385,0.22,0.495
					c-0.074,0-0.137,0.009-0.192,0.027s-0.12,0.027-0.192,0.027c-0.477-0.073-0.807,0.055-0.99,0.385
					c-0.037,0.074-0.119,0.12-0.248,0.138c-0.129,0.019-0.229,0.064-0.302,0.138c-0.147,0.074-0.275,0.109-0.385,0.109
					c-0.11,0-0.202,0.037-0.275,0.11c-0.184,0.184-0.376,0.357-0.577,0.522c-0.202,0.165-0.413,0.34-0.633,0.522
					c-0.33,0.22-0.66,0.44-0.99,0.66s-0.697,0.477-1.1,0.771c-0.257,0.184-0.514,0.357-0.77,0.522
					c-0.257,0.165-0.495,0.357-0.715,0.577c-0.404,0.257-0.77,0.504-1.1,0.742c-0.33,0.239-0.697,0.505-1.1,0.798
					c-0.22,0.184-0.651,0.55-1.292,1.1c-0.642,0.55-1.32,1.138-2.035,1.761c-0.715,0.623-1.375,1.201-1.98,1.732
					s-0.981,0.871-1.127,1.018c-0.147,0.184-0.302,0.22-0.467,0.109c-0.165-0.109-0.34-0.274-0.522-0.495
					c-0.184-0.22-0.367-0.467-0.55-0.742c-0.184-0.275-0.367-0.504-0.55-0.688c-0.11-0.256-0.22-0.44-0.33-0.55
					c-0.55-0.514-0.77-0.936-0.66-1.266c0.11-0.33,0.33-0.732,0.66-1.21c0.476-0.659,1.018-1.218,1.623-1.677
					c0.605-0.458,1.183-0.963,1.732-1.513c0.366-0.403,0.706-0.771,1.018-1.101c0.311-0.33,0.65-0.641,1.018-0.935
					c0.843-0.623,1.658-1.219,2.447-1.787c0.788-0.568,1.585-1.164,2.393-1.788c0.403-0.256,0.788-0.522,1.155-0.797
					c0.366-0.275,0.751-0.559,1.155-0.853c0.586-0.294,1.155-0.559,1.705-0.798c0.55-0.238,1.081-0.504,1.595-0.798
					c0.733-0.293,1.485-0.559,2.255-0.797c0.77-0.238,1.576-0.431,2.42-0.578c0.073,0,0.165-0.009,0.275-0.027
					c0.11-0.018,0.22-0.027,0.33-0.027c0.403,0,0.806,0.01,1.21,0.027c0.403,0.019,0.806,0.01,1.21-0.027
					c0.843-0.036,1.686,0.019,2.53,0.165c0.843,0.146,1.631,0.404,2.365,0.77c0.22,0.074,0.403,0.129,0.55,0.165
					c0.293,0.074,0.476,0.12,0.55,0.138c0.073,0.02,0.238,0.119,0.495,0.303c0.221,0.22,0.431,0.376,0.633,0.468
					c0.201,0.092,0.394,0.174,0.577,0.247c0.073,0.074,0.128,0.11,0.165,0.11c0.11,0.073,0.229,0.138,0.357,0.192
					s0.229,0.156,0.303,0.303c0.146,0.294,0.339,0.531,0.578,0.715c0.237,0.184,0.412,0.403,0.521,0.66
					c0.221,0.403,0.395,0.816,0.523,1.237c0.127,0.422,0.283,0.853,0.467,1.292l0.055,0.056v0.055
					c-0.184,0.294-0.22,0.597-0.109,0.907c0.109,0.312,0.128,0.614,0.055,0.908c0,0.073-0.037,0.184-0.109,0.329
					c0,0.074-0.02,0.129-0.056,0.165c-0.036,0.037-0.036,0.074,0,0.11c0.11,0.22,0.138,0.422,0.083,0.605s-0.119,0.366-0.193,0.55
					c-0.036,0.073-0.036,0.165,0,0.274c0.037,0.11,0.037,0.202,0,0.275c-0.073,0.294-0.184,0.55-0.33,0.77
					c-0.184,0.294-0.339,0.551-0.467,0.771c-0.129,0.22-0.267,0.459-0.412,0.715c-0.33,0.33-0.625,0.752-0.881,1.265
					c-0.037,0.074-0.064,0.12-0.082,0.138c-0.02,0.02-0.047,0.064-0.082,0.138c-0.074,0.147-0.139,0.294-0.193,0.44
					s-0.137,0.274-0.247,0.385c-0.294,0.33-0.577,0.669-0.853,1.018s-0.56,0.669-0.853,0.962c-0.074,0.147-0.147,0.294-0.22,0.44
					c-0.074,0.146-0.147,0.275-0.22,0.385c0,0.11-0.092,0.202-0.275,0.275c-0.367,0.109-0.615,0.321-0.743,0.632
					c-0.129,0.312-0.321,0.615-0.578,0.908c-0.184,0.22-0.385,0.449-0.605,0.688c-0.22,0.238-0.495,0.412-0.825,0.522
					c-0.587,0.184-0.972,0.477-1.155,0.88c-0.074,0.146-0.184,0.274-0.33,0.385c-0.147,0.11-0.294,0.239-0.44,0.385
					c-0.147,0.221-0.257,0.35-0.33,0.386c0.55,0.073,1.118,0.165,1.705,0.274c0.586,0.11,1.136,0.257,1.65,0.44
					c0.55,0.22,1.1,0.459,1.65,0.715c0.55,0.257,1.063,0.604,1.54,1.045c0.22,0.184,0.458,0.376,0.715,0.577
					c0.256,0.202,0.514,0.395,0.77,0.578c0.11,0.109,0.229,0.22,0.357,0.33c0.129,0.109,0.174,0.274,0.139,0.495
					c0,0.109,0.072,0.22,0.219,0.329c0.146,0.11,0.275,0.202,0.386,0.275c0.403,0.294,0.733,0.624,0.989,0.99
					c0.257,0.367,0.496,0.752,0.716,1.155c0.256,0.439,0.44,0.88,0.55,1.319c0.073,0.294,0.109,0.569,0.109,0.825
					c0,0.257,0.019,0.532,0.056,0.825c0.036,0.403,0.073,0.807,0.11,1.21C81.98,78.938,82.018,79.36,82.055,79.8z M42.18,103.67
					c0.404-0.036,0.78-0.073,1.128-0.11c0.349-0.036,0.706-0.091,1.072-0.165c0.11,0,0.201-0.008,0.275-0.027
					c0.073-0.018,0.146-0.027,0.22-0.027v-0.604c-0.074,0.036-0.165,0.064-0.275,0.082c-0.11,0.019-0.202,0.047-0.275,0.083
					c-0.366,0.109-0.751,0.174-1.155,0.192c-0.403,0.019-0.806,0.119-1.21,0.302c-0.073,0.074-0.138,0.12-0.192,0.138
					c-0.055,0.02-0.119,0.047-0.193,0.083c0,0.073,0.019,0.129,0.055,0.165C41.704,103.78,41.887,103.744,42.18,103.67z
					 M45.205,104.275c0.11,0.109,0.201,0.183,0.275,0.22v-0.275c-0.037,0-0.074-0.009-0.11-0.027
					c-0.037-0.019-0.092-0.027-0.165-0.027V104.275z M46.14,102.405c-0.404,0.073-0.66,0.146-0.77,0.22v0.33
					c0,0.11-0.019,0.202-0.055,0.275c0.073,0,0.137-0.009,0.192-0.028c0.055-0.018,0.119-0.027,0.192-0.027
					c0-0.073,0.009-0.155,0.028-0.247c0.018-0.092,0.027-0.174,0.027-0.248c0.073,0.074,0.138,0.138,0.192,0.192
					c0.055,0.056,0.119,0.12,0.192,0.193c0.036,0,0.073-0.009,0.11-0.028c0.036-0.018,0.091-0.027,0.165-0.027
					c0-0.366-0.037-0.55-0.11-0.55c-0.037,0-0.064-0.009-0.083-0.027C46.204,102.414,46.176,102.405,46.14,102.405z M45.48,100.315
					c-0.037,0.073-0.019,0.22,0.055,0.439c0.146,0,0.256-0.018,0.33-0.055c0.146-0.036,0.256-0.128,0.33-0.275
					c0.036,0.074,0.055,0.147,0.055,0.22c0.146,0,0.33-0.035,0.55-0.109c0.183-0.623,0.091-1.229-0.275-1.815
					c0.256-0.183,0.467-0.33,0.632-0.439c0.165-0.11,0.339-0.238,0.522-0.386c-0.147-0.146-0.284-0.274-0.412-0.385
					c-0.129-0.109-0.102-0.293,0.083-0.55c0.11-0.11,0.091-0.256-0.055-0.44c-0.147-0.183-0.184-0.32-0.11-0.412
					c0.073-0.091,0.165-0.174,0.275-0.247v-0.88c0.036,0-0.092-0.073-0.385-0.221c0.183-0.073,0.358-0.118,0.522-0.138
					c0.165-0.018,0.284-0.063,0.358-0.137c0.183-0.293,0.33-0.596,0.44-0.908c0.11-0.311,0.238-0.668,0.385-1.072
					c-0.147,0.037-0.33,0.055-0.55,0.055l-0.055-0.109c0.293-0.146,0.513-0.275,0.66-0.385c-0.037-0.33-0.055-0.669-0.055-1.018
					s-0.202-0.614-0.605-0.798c0.22-0.036,0.385-0.036,0.495,0c0.073,0.074,0.128,0.138,0.165,0.192
					c0.036,0.055,0.091,0.119,0.165,0.192c-0.037-0.293-0.037-0.485,0-0.577c0.036-0.091,0.201-0.284,0.495-0.577l0.055-0.11
					c0.146-0.44,0.275-0.861,0.385-1.265c0.11-0.403,0.256-0.825,0.44-1.266c0-0.036-0.055-0.091-0.165-0.165
					c-0.074,0.074-0.138,0.12-0.192,0.138c-0.055,0.019-0.12,0.047-0.193,0.082c-0.037,0-0.092-0.035-0.165-0.109
					c0.256-0.477,0.495-0.861,0.715-1.155l0.055-0.604c0.239,0.073,0.496,0.146,0.77,0.22c-0.074-0.256-0.119-0.448-0.137-0.577
					c-0.019-0.129-0.046-0.248-0.083-0.358c0.11-0.146,0.275-0.329,0.495-0.55c-0.11-0.073-0.202-0.128-0.275-0.165
					c-0.074-0.036-0.147-0.091-0.22-0.165c0.073-0.33,0.173-0.641,0.302-0.935c0.128-0.293,0.229-0.586,0.303-0.88h0.165
					c-0.11,0.439-0.22,0.825-0.33,1.154c-0.074,0.147-0.11,0.312-0.11,0.495c0.073-0.072,0.155-0.128,0.248-0.165
					c0.091-0.036,0.155-0.109,0.192-0.22c0.183-0.293,0.348-0.596,0.495-0.907c0.146-0.312,0.348-0.65,0.605-1.018
					c-0.257,0.074-0.45,0.129-0.578,0.165c-0.129,0.037-0.248,0.074-0.357,0.11l-0.11-0.11c0.073-0.073,0.146-0.128,0.22-0.165
					c0.073-0.036,0.146-0.091,0.22-0.165c0.073-0.073,0.183-0.155,0.33-0.247c0.146-0.092,0.238-0.174,0.275-0.248
					c0.146-0.403,0.275-0.788,0.385-1.155c0.11-0.366,0.238-0.751,0.385-1.154c-0.184-0.036-0.404-0.092-0.66-0.165
					c0.073-0.184,0.155-0.349,0.248-0.495c0.091-0.146,0.173-0.293,0.248-0.44c-0.294,0.147-0.587,0.294-0.88,0.44
					c-0.294,0.146-0.55,0.294-0.77,0.439c-0.147,0.478-0.312,0.862-0.495,1.155c-0.074,0.184-0.138,0.385-0.193,0.605
					c-0.055,0.22-0.119,0.439-0.192,0.659c-0.147,0.367-0.284,0.716-0.413,1.046c-0.129,0.329-0.266,0.679-0.412,1.045
					c-0.22,0.659-0.44,1.329-0.66,2.007c-0.22,0.679-0.459,1.366-0.715,2.062c-0.11,0.478-0.229,0.944-0.358,1.402
					c-0.129,0.459-0.266,0.908-0.412,1.348c-0.11,0.404-0.193,0.808-0.248,1.21c-0.055,0.404-0.175,0.808-0.357,1.21
					c-0.257,0.478-0.385,0.963-0.385,1.458s-0.092,0.981-0.275,1.457c-0.184,0.44-0.285,0.917-0.303,1.431
					c-0.019,0.514-0.101,1.009-0.248,1.484c-0.184,0.515-0.266,1.009-0.247,1.485C45.911,99.307,45.773,99.802,45.48,100.315z
					 M45.81,104.605c0-0.037,0.008-0.056,0.027-0.056c0.018,0,0.027-0.019,0.027-0.055v-0.055c0-0.037-0.009-0.056-0.027-0.056
					c-0.019,0-0.027-0.019-0.027-0.055V104.605z M48.56,96.96c-0.074,0.074-0.138,0.119-0.193,0.138
					c-0.055,0.019-0.101,0.064-0.137,0.138c-0.074,0.184-0.138,0.376-0.192,0.577c-0.055,0.202-0.12,0.395-0.193,0.577
					c0,0.037,0.073,0.202,0.22,0.495c0.036-0.073,0.091-0.109,0.165-0.109c0.073-0.257,0.155-0.495,0.248-0.716
					c0.091-0.22,0.173-0.476,0.248-0.77c0-0.036-0.019-0.083-0.055-0.138C48.633,97.098,48.596,97.034,48.56,96.96z M49.055,103.56
					c0.146-0.036,0.284-0.082,0.413-0.137c0.128-0.056,0.248-0.119,0.357-0.192c0-0.073-0.009-0.119-0.027-0.138
					c-0.019-0.019-0.027-0.046-0.027-0.083c-0.147,0.037-0.285,0.056-0.413,0.056c-0.129,0-0.267,0.036-0.413,0.109
					c-0.11,0.037-0.22,0.074-0.33,0.11c-0.11,0.037-0.202,0.074-0.275,0.109c0,0.074-0.009,0.129-0.027,0.165
					c-0.019,0.037-0.028,0.074-0.028,0.11v0.055c0.146-0.036,0.275-0.063,0.385-0.082S48.908,103.597,49.055,103.56z M48.78,94.87
					c0.183,0.257,0.192,0.495,0.028,0.715c-0.165,0.22-0.285,0.422-0.358,0.605c0,0.073-0.009,0.156-0.027,0.247
					c-0.019,0.092-0.027,0.192-0.027,0.303c0,0.037,0.036,0.064,0.11,0.082c0.073,0.02,0.11,0.01,0.11-0.027
					c0.073-0.073,0.165-0.155,0.275-0.247c0.11-0.092,0.165-0.174,0.165-0.248c0.073-0.293,0.119-0.596,0.138-0.907
					c0.018-0.312,0.045-0.613,0.083-0.907L49.22,94.43c-0.11,0.074-0.22,0.156-0.33,0.248C48.78,94.77,48.743,94.834,48.78,94.87z
					 M60.88,96.905c0.293-0.403,0.678-0.514,1.155-0.33c0.036,0,0.083-0.009,0.138-0.027s0.119-0.028,0.192-0.028
					c-0.11-0.109-0.165-0.183-0.165-0.22c-0.037-0.073-0.055-0.146-0.055-0.22c-0.11-0.293-0.33-0.348-0.66-0.165
					c-0.294,0.22-0.614,0.432-0.962,0.633c-0.349,0.201-0.688,0.395-1.018,0.577c-0.074,0.037-0.174,0.055-0.303,0.055
					c-0.129,0-0.229,0-0.302,0c-0.074,0.037-0.129,0.056-0.165,0.056c-0.037,0-0.092,0.019-0.165,0.055
					c-0.33,0.146-0.642,0.312-0.935,0.495c-0.294,0.184-0.605,0.349-0.935,0.495c-0.404,0.184-0.789,0.366-1.155,0.55
					c-0.367,0.184-0.752,0.349-1.155,0.495c-0.514,0.294-1.054,0.55-1.622,0.77c-0.569,0.221-1.11,0.44-1.623,0.66
					c-0.074,0.037-0.22,0.092-0.44,0.165c-0.367,0.11-0.715,0.22-1.045,0.33c-0.33,0.11-0.679,0.22-1.045,0.33v0.275
					c0.036,0.073,0.046,0.146,0.028,0.22c-0.019,0.073-0.028,0.146-0.028,0.22c0.073-0.036,0.138-0.063,0.193-0.082
					c0.055-0.019,0.118-0.046,0.192-0.083c0.183-0.073,0.348-0.128,0.495-0.165c0.146-0.036,0.293-0.091,0.44-0.165
					c0.366-0.073,0.724-0.155,1.072-0.247c0.348-0.092,0.668-0.229,0.962-0.413c0.623-0.33,1.246-0.567,1.87-0.715
					c0.623-0.146,1.21-0.458,1.76-0.935c0.293-0.221,0.605-0.403,0.935-0.55c0.33-0.146,0.678-0.312,1.045-0.495
					c0.11-0.073,0.22-0.138,0.33-0.192c0.11-0.056,0.238-0.119,0.385-0.193c0.366-0.183,0.751-0.348,1.155-0.494
					c0.403-0.146,0.806-0.294,1.21-0.44c0.073-0.036,0.119-0.073,0.138-0.11C60.815,96.979,60.843,96.942,60.88,96.905z
					 M54.335,80.515c-0.074-0.146-0.046-0.421,0.083-0.824c0.128-0.403,0.302-0.733,0.522-0.99c0.256-0.293,0.385-0.614,0.385-0.963
					c0-0.348,0.036-0.688,0.11-1.018l-0.164-0.109c-0.073,0.184-0.146,0.357-0.218,0.522s-0.163,0.339-0.271,0.522
					c-0.181,0.403-0.399,0.789-0.652,1.154c-0.254,0.367-0.417,0.808-0.49,1.32c-0.036,0.184-0.082,0.377-0.136,0.577
					c-0.055,0.202-0.137,0.395-0.245,0.578c-0.508,0.697-0.871,1.43-1.088,2.2c-0.218,0.77-0.417,1.521-0.599,2.255
					c-0.145,0.367-0.235,0.725-0.271,1.072c-0.036,0.349-0.181,0.688-0.436,1.018c-0.108,0.146-0.19,0.321-0.244,0.522
					c-0.055,0.202-0.119,0.412-0.191,0.633c-0.11,0.33-0.184,0.679-0.22,1.045c-0.037,0.366-0.11,0.715-0.22,1.045
					c-0.147,0.367-0.239,0.752-0.275,1.155c-0.037,0.403-0.294,0.752-0.77,1.045c0.073,0.146,0.146,0.294,0.22,0.439
					c0.073,0.147,0.165,0.33,0.275,0.55c0.073-0.183,0.137-0.32,0.192-0.412c0.055-0.091,0.101-0.192,0.138-0.303
					c0.22-0.806,0.444-1.576,0.674-2.31c0.229-0.733,0.462-1.467,0.701-2.2c0.33-0.88,0.623-1.815,0.88-2.805
					c0.073-0.184,0.146-0.366,0.22-0.551c0.073-0.183,0.146-0.385,0.22-0.604c0.183-0.22,0.348-0.44,0.495-0.66
					c0.146-0.22,0.256-0.476,0.33-0.77c0.073-0.33,0.137-0.679,0.192-1.045s0.229-0.696,0.522-0.99
					c0.036-0.036,0.055-0.11,0.055-0.221c0.036-0.109,0.073-0.229,0.11-0.357C54.206,80.909,54.261,80.735,54.335,80.515z
					 M78.314,78.315c0.221-0.587,0.403-1.174,0.551-1.761c0.146-0.586,0.128-1.19-0.055-1.814c-0.037-0.221-0.166-0.421-0.386-0.605
					c-0.22-0.183-0.422-0.366-0.604-0.55c-0.295-0.256-0.588-0.468-0.881-0.633s-0.586-0.338-0.879-0.522
					c-0.66-0.293-1.339-0.559-2.035-0.797c-0.697-0.238-1.467-0.357-2.31-0.357H71.66c-0.22-0.073-0.422-0.138-0.605-0.193
					c-0.184-0.055-0.422-0.045-0.715,0.028c-0.184,0.073-0.395,0.073-0.632,0C69.468,71.037,69.24,71,69.02,71
					c-0.22,0-0.44,0.019-0.66,0.055c-0.22,0.037-0.44,0.074-0.66,0.11h-0.165c-0.44-0.146-0.871-0.165-1.292-0.055
					c-0.422,0.109-0.889,0.184-1.402,0.22c-0.074,0.037-0.12,0.082-0.138,0.138c-0.019,0.055-0.046,0.102-0.082,0.138
					c-0.147,0.073-0.33,0.184-0.55,0.329c-0.184,0.074-0.367,0.138-0.55,0.193c-0.184,0.055-0.367,0.064-0.55,0.027
					c-0.294-0.073-0.55-0.056-0.77,0.055c-0.22,0.11-0.458,0.202-0.715,0.275c-0.404,0.184-0.797,0.349-1.183,0.495
					c-0.385,0.146-0.761,0.366-1.127,0.659c-0.147,0.037-0.257,0.074-0.33,0.11c-0.074,0.037-0.147,0.092-0.22,0.165
					c-0.037,0.074-0.055,0.184-0.055,0.33c-0.184,0.184-0.357,0.376-0.522,0.577c-0.165,0.202-0.321,0.395-0.467,0.578
					c-0.11,0.109-0.129,0.238-0.055,0.385c0.073,0.33,0.091,0.532,0.055,0.604c-0.037,0.074-0.202,0.202-0.495,0.386
					c0.146,0.294,0.173,0.504,0.083,0.632c-0.092,0.129-0.22,0.229-0.385,0.303c-0.165,0.074-0.349,0.147-0.55,0.22
					c-0.202,0.074-0.339,0.185-0.413,0.33c0.194,0.037,0.359,0.056,0.495,0.056s0.301,0,0.495,0
					c-0.44,0.294-0.752,0.577-0.935,0.853c-0.184,0.274-0.184,0.614,0,1.017c-0.184,0.147-0.33,0.267-0.44,0.358
					c-0.11,0.092-0.22,0.192-0.33,0.302c0.073,0.11,0.183,0.239,0.33,0.386c0.073,0.293,0.008,0.439-0.193,0.439
					c-0.202,0-0.412,0.037-0.632,0.11c0.11,0.22,0.22,0.403,0.33,0.55c-0.184,0.074-0.349,0.146-0.495,0.22
					c-0.147,0.074-0.312,0.147-0.495,0.22c-0.074,0.074-0.11,0.165-0.11,0.275s0.055,0.165,0.165,0.165
					c0.11,0.037,0.311,0.092,0.605,0.165c-0.33,0.037-0.514,0.138-0.55,0.303c-0.037,0.165-0.074,0.357-0.11,0.577
					c-0.074,0.294-0.156,0.569-0.248,0.825c-0.092,0.257-0.174,0.532-0.247,0.825c-0.037,0.073-0.055,0.129-0.055,0.165
					c0,0.037-0.019,0.092-0.055,0.165c0,0.22-0.037,0.477-0.11,0.77c-0.074,0-0.156-0.009-0.248-0.027
					c-0.092-0.019-0.174-0.027-0.248-0.027c-0.147,0-0.248,0.009-0.302,0.027c-0.055,0.019-0.12,0.027-0.192,0.027
					c0.11,0.147,0.238,0.275,0.385,0.385c0.146,0.11,0.256,0.239,0.33,0.386c-0.074,0.146-0.192,0.294-0.357,0.439
					c-0.165,0.147-0.285,0.312-0.357,0.495c-0.037,0.11-0.028,0.239,0.027,0.385c0.055,0.147,0.101,0.294,0.137,0.44
					c0.036,0.074,0.101,0.146,0.193,0.22c0.091,0.074,0.137,0.147,0.137,0.22c-0.184,0.258-0.321,0.515-0.413,0.771
					c-0.092,0.257-0.211,0.495-0.357,0.715c-0.037,0.074-0.119,0.119-0.248,0.138c-0.129,0.019-0.266,0.064-0.412,0.138
					c0.11,0.036,0.183,0.165,0.22,0.385c-0.257,0.11-0.477,0.184-0.66,0.22c0.22,0.478,0.293,0.899,0.22,1.266
					c-0.074,0.366-0.165,0.752-0.275,1.154c-0.074,0.221-0.156,0.449-0.248,0.688c-0.092,0.239-0.156,0.468-0.192,0.688
					c-0.11,0.478-0.202,0.954-0.275,1.431c-0.074,0.477-0.147,0.972-0.22,1.484c-0.037,0.074-0.055,0.156-0.055,0.248
					s-0.019,0.174-0.055,0.247c0.291-0.073,0.553-0.165,0.79-0.275c0.236-0.109,0.482-0.2,0.736-0.274
					c0.727-0.256,1.408-0.485,2.044-0.688c0.636-0.201,1.262-0.431,1.88-0.688c0.399-0.184,0.783-0.366,1.15-0.55
					c0.366-0.184,0.751-0.386,1.155-0.605c0.66-0.33,1.348-0.66,2.062-0.99s1.42-0.659,2.118-0.989
					c0.44-0.293,0.88-0.578,1.32-0.853c0.44-0.275,0.916-0.578,1.43-0.908c0.99-0.55,1.916-1.146,2.777-1.787
					c0.861-0.641,1.713-1.293,2.558-1.952c0.513-0.403,1.018-0.834,1.512-1.293c0.495-0.458,0.999-0.943,1.513-1.457
					c0.476-0.44,0.935-0.916,1.375-1.431c0.44-0.513,0.88-1.025,1.32-1.54c0.22-0.293,0.421-0.604,0.605-0.935
					c0.183-0.33,0.403-0.642,0.661-0.936c0.365-0.439,0.668-0.935,0.907-1.484C77.92,79.36,78.131,78.829,78.314,78.315z
					 M50.54,86.51c0.036-0.195,0.073-0.352,0.11-0.469c0.036-0.117,0.073-0.255,0.11-0.411h-0.385c0,0.118-0.01,0.245-0.028,0.382
					c-0.019,0.138-0.027,0.283-0.027,0.439L50.54,86.51z M50.32,102.79c0.623,0.146,0.99,0.037,1.1-0.33
					c-0.184,0.074-0.367,0.129-0.55,0.165C50.686,102.662,50.503,102.717,50.32,102.79z M52.08,90.58
					c-0.294-0.073-0.522-0.083-0.688-0.027c-0.165,0.055-0.229,0.284-0.193,0.688c0.183-0.11,0.33-0.221,0.44-0.33
					C51.75,90.8,51.896,90.69,52.08,90.58z M53.015,78.425c-0.074,0.185-0.137,0.377-0.192,0.578
					c-0.055,0.201-0.174,0.412-0.357,0.632c-0.037,0-0.074-0.009-0.11-0.027c-0.037-0.018-0.074-0.027-0.11-0.027
					c0.073-0.22,0.165-0.431,0.275-0.633c0.11-0.201,0.201-0.412,0.275-0.632C52.868,78.389,52.941,78.425,53.015,78.425z
					 M52.355,102.295c0.733-0.256,1.43-0.495,2.09-0.715s1.301-0.477,1.925-0.771c0-0.036-0.01-0.055-0.028-0.055
					c-0.019,0-0.027-0.018-0.027-0.055c-0.33-0.036-0.55-0.027-0.66,0.027s-0.312,0.138-0.605,0.247
					c-0.257,0.185-0.514,0.312-0.77,0.386c-0.257,0.073-0.532,0.146-0.825,0.22h-0.11c-0.257-0.073-0.486-0.055-0.688,0.055
					C52.456,101.745,52.355,101.965,52.355,102.295z M54.445,76.335c-0.22,0.147-0.385,0.239-0.495,0.275
					c0,0.036,0.018,0.073,0.055,0.109c0.073-0.073,0.146-0.138,0.22-0.192C54.298,76.473,54.371,76.409,54.445,76.335z
					 M55.82,68.085c-0.11,0.294-0.22,0.569-0.33,0.825c-0.11,0.257-0.22,0.532-0.33,0.825c0.183-0.073,0.385-0.146,0.605-0.221
					c0.073-0.072,0.165-0.137,0.275-0.192c0.11-0.055,0.201-0.101,0.275-0.138c0.146-0.365,0.275-0.788,0.385-1.265
					c0.073-0.256,0.146-0.586,0.22-0.99c0-0.036-0.019-0.101-0.055-0.192c-0.037-0.091-0.074-0.138-0.11-0.138
					c-0.184,0-0.294,0.093-0.33,0.275c-0.11,0.22-0.211,0.432-0.302,0.633C56.03,67.709,55.93,67.902,55.82,68.085z M55.545,75.73
					c-0.22,0.439-0.092,0.679,0.385,0.715c0.073-0.221,0.119-0.413,0.138-0.578c0.018-0.165,0.063-0.32,0.138-0.467
					C56.021,75.474,55.801,75.584,55.545,75.73z M61.54,98.005c0.183-0.073,0.338-0.146,0.467-0.22
					c0.128-0.073,0.248-0.146,0.357-0.22c-0.037-0.036-0.055-0.073-0.055-0.11c0-0.036-0.019-0.073-0.055-0.11l-0.825,0.44
					C61.503,97.859,61.54,97.932,61.54,98.005z M64.015,94.65c-0.11,0.073-0.202,0.129-0.275,0.165
					c-0.074,0.036-0.147,0.092-0.22,0.165h-0.055c-0.184,0.073-0.357,0.137-0.522,0.192c-0.165,0.055-0.339,0.119-0.522,0.192
					c-0.11,0.109-0.165,0.202-0.165,0.274c0,0.147,0.055,0.221,0.165,0.221c0.073,0.036,0.183,0.019,0.33-0.056
					c0.183-0.072,0.366-0.183,0.55-0.33c0.183-0.146,0.421-0.183,0.715-0.109V94.65z M63.74,96.85c0.036,0,0.055-0.091,0.055-0.274
					L63.63,96.52c-0.294,0.221-0.55,0.404-0.77,0.551l0.165,0.165c0.11-0.073,0.229-0.138,0.357-0.192
					C63.51,96.987,63.63,96.924,63.74,96.85z M64.298,94.705c0.073-0.073,0.163-0.138,0.271-0.192
					c0.107-0.056,0.162-0.174,0.162-0.357c0,0.037-0.035-0.019-0.103-0.165c-0.22,0.22-0.385,0.403-0.495,0.55
					c0,0.037,0.018,0.074,0.055,0.11C64.224,94.687,64.261,94.705,64.298,94.705z M65.94,65.885c-0.66,0.221-1.137,0.587-1.43,1.101
					c0.183-0.036,0.385-0.056,0.605-0.056c0.22,0,0.458-0.018,0.715-0.055c0.146-0.183,0.302-0.32,0.467-0.412
					s0.321-0.193,0.467-0.303c0.036-0.036,0.055-0.073,0.055-0.11c0-0.036,0.018-0.091,0.055-0.165
					c0.036-0.067,0.073-0.127,0.11-0.179c0.036-0.051,0.073-0.109,0.11-0.179l0.22-0.204c-0.074-0.034-0.129-0.067-0.165-0.102
					c-0.037-0.034-0.074-0.052-0.11-0.052c-0.147,0.034-0.294,0.103-0.44,0.205c-0.11,0.068-0.22,0.153-0.33,0.255
					C66.16,65.732,66.05,65.817,65.94,65.885z M67.865,94.54c0.073-0.036,0.119-0.101,0.138-0.192
					c0.018-0.091,0.045-0.174,0.083-0.248c-0.037-0.036-0.092-0.055-0.165-0.055c-0.11,0.037-0.229,0.074-0.357,0.11
					c-0.129,0.037-0.285,0.092-0.468,0.165c-0.184,0.109-0.357,0.211-0.522,0.302c-0.165,0.093-0.339,0.193-0.522,0.303
					c-0.184,0.147-0.339,0.284-0.467,0.413c-0.129,0.129-0.285,0.229-0.468,0.302c-0.147,0.037-0.257,0.185-0.33,0.44
					c0.073,0,0.156-0.009,0.248-0.027c0.091-0.019,0.174-0.027,0.248-0.027c0.036-0.036,0.063-0.056,0.083-0.056
					c0.018,0,0.045-0.018,0.083-0.055c0.183-0.036,0.357-0.073,0.522-0.11c0.165-0.036,0.339-0.091,0.522-0.165
					c0.22-0.183,0.449-0.366,0.688-0.55C67.416,94.907,67.645,94.724,67.865,94.54z M66.82,92.505
					c0.073,0.037,0.128,0.083,0.165,0.138c0.036,0.055,0.073,0.082,0.11,0.082c0.183-0.072,0.33-0.137,0.44-0.192
					c0.11-0.055,0.238-0.118,0.385-0.192c0.036-0.036,0.045-0.073,0.027-0.109c-0.019-0.036-0.009-0.092,0.028-0.165H67.7
					c-0.074,0.036-0.137,0.073-0.192,0.109c-0.055,0.037-0.137,0.074-0.248,0.11c0-0.036-0.009-0.063-0.027-0.083
					c-0.019-0.018-0.027-0.045-0.027-0.082L66.82,92.505z M67.7,64.235c-0.11,0.036-0.22,0.109-0.33,0.22
					c-0.11,0.11-0.202,0.239-0.275,0.385c0.366,0.257,0.623,0.367,0.77,0.33c0.146-0.036,0.311-0.22,0.495-0.55
					c0.11-0.11,0.21-0.22,0.303-0.33c0.091-0.11,0.173-0.201,0.247-0.275c0.183-0.183,0.339-0.357,0.468-0.522
					c0.128-0.165,0.284-0.338,0.467-0.522c0.073-0.073,0.128-0.109,0.165-0.109c0.036,0,0.091-0.036,0.165-0.11
					c0.036-0.036,0.073-0.063,0.11-0.082c0.036-0.019,0.073-0.046,0.11-0.083c0.22-0.256,0.44-0.476,0.66-0.66
					c0.183-0.22,0.376-0.448,0.578-0.688c0.201-0.238,0.413-0.468,0.632-0.688c0.183-0.146,0.33-0.311,0.44-0.495
					c0.11-0.183,0.256-0.348,0.44-0.495c-0.294-0.183-0.587-0.146-0.88,0.11c-0.074,0.074-0.146,0.156-0.22,0.248
					c-0.074,0.092-0.165,0.211-0.275,0.357c-0.184,0.184-0.357,0.349-0.522,0.494c-0.165,0.147-0.34,0.312-0.522,0.495
					c-0.184,0.294-0.367,0.56-0.55,0.798c-0.184,0.239-0.385,0.505-0.605,0.798c-0.074,0.073-0.156,0.119-0.248,0.137
					c-0.092,0.02-0.174,0.064-0.248,0.138c-0.074,0.037-0.129,0.056-0.165,0.056c-0.037,0-0.074,0.019-0.11,0.055
					c-0.184,0.146-0.349,0.33-0.495,0.55C68.158,64.015,67.956,64.162,67.7,64.235z M67.755,66.765
					c0.146-0.072,0.275-0.109,0.385-0.109c0.11,0,0.22-0.036,0.33-0.11c0.11-0.036,0.201-0.183,0.275-0.439
					c0-0.073-0.037-0.146-0.11-0.221c-0.037,0-0.092,0-0.165,0c-0.074,0-0.11,0.02-0.11,0.056c-0.11,0.073-0.211,0.174-0.302,0.302
					c-0.092,0.129-0.193,0.248-0.303,0.357V66.765z M68.195,93.88c0.183,0.074,0.413,0.047,0.688-0.082
					c0.275-0.128,0.468-0.284,0.578-0.468c0-0.036-0.019-0.11-0.055-0.22c-0.037-0.11-0.074-0.165-0.11-0.165
					c-0.184,0-0.294,0.037-0.33,0.109c-0.147,0.185-0.284,0.34-0.413,0.468C68.423,93.651,68.305,93.77,68.195,93.88z
					 M71.275,64.235c0.036-0.036,0.055-0.092,0.055-0.165s0.018-0.146,0.055-0.221c-0.074,0-0.129-0.008-0.165-0.027
					c-0.037-0.018-0.092-0.009-0.165,0.027c-0.037,0-0.165,0.037-0.385,0.11c-0.147,0.074-0.285,0.156-0.413,0.247
					C70.128,64.3,70.01,64.4,69.9,64.51c0,0.037,0.009,0.064,0.027,0.083c0.018,0.019,0.028,0.064,0.028,0.138
					c0.22-0.11,0.44-0.201,0.66-0.275C70.835,64.382,71.055,64.309,71.275,64.235z M72.54,63.025c0-0.036,0.018-0.073,0.055-0.11
					c-0.074-0.036-0.137-0.083-0.192-0.138s-0.12-0.063-0.192-0.027c-0.074,0-0.138,0.019-0.192,0.055
					c-0.055,0.037-0.138,0.074-0.248,0.11c0.073,0.074,0.128,0.129,0.165,0.165c0.036,0.037,0.091,0.055,0.165,0.055
					c0.073,0.037,0.146,0.037,0.22,0C72.393,63.099,72.466,63.062,72.54,63.025z M72.925,58.79
					c-0.037,0.074-0.055,0.202-0.055,0.385c0,0.147,0.091,0.165,0.275,0.056c0.22,0,0.33-0.056,0.33-0.165
					c0.036-0.294,0.146-0.522,0.33-0.688c0.183-0.165,0.366-0.358,0.55-0.578c0.073-0.073,0.146-0.155,0.22-0.247
					c0.073-0.092,0.055-0.248-0.055-0.468c-0.074,0.074-0.157,0.147-0.248,0.22c-0.092,0.074-0.174,0.147-0.248,0.221
					c-0.074,0.073-0.138,0.174-0.192,0.302c-0.055,0.129-0.12,0.229-0.193,0.303c-0.11,0.11-0.22,0.22-0.33,0.33
					C73.2,58.57,73.071,58.68,72.925,58.79z M73.53,88.545c0.183,0,0.311-0.027,0.385-0.082c0.073-0.056,0.238-0.284,0.495-0.688
					C74.116,87.702,73.823,87.959,73.53,88.545z M75.675,85.355c0.036-0.036,0.055-0.083,0.055-0.138
					c0-0.056,0.018-0.119,0.055-0.192c-0.184,0-0.376,0.101-0.577,0.302c-0.202,0.202-0.395,0.432-0.578,0.688
					c-0.184,0.257-0.349,0.515-0.495,0.771c-0.147,0.257-0.257,0.459-0.33,0.604c0.11-0.036,0.201-0.063,0.275-0.082
					c0.073-0.019,0.146-0.046,0.22-0.083c0.22-0.293,0.44-0.604,0.66-0.935C75.18,85.96,75.418,85.648,75.675,85.355z M76.225,85.85
					c0.183-0.256,0.366-0.522,0.55-0.797c0.183-0.275,0.365-0.559,0.549-0.853c-0.256,0.073-0.549,0.321-0.879,0.742
					c-0.33,0.422-0.495,0.742-0.495,0.963c0.073,0,0.138,0.009,0.193,0.027c0.055,0.019,0.118,0.027,0.192,0.027L76.225,85.85z"/>
				<path d="M118.574,90.14c-0.074,0.074-0.156,0.147-0.248,0.221s-0.156,0.201-0.191,0.385c-0.037,0.294-0.24,0.587-0.605,0.88
					c-0.074,0.11-0.221,0.275-0.439,0.495c-0.037,0.11-0.093,0.239-0.166,0.385v0.055l-0.109,0.386L116.869,93l-0.055,0.055
					c-0.11,0.074-0.221,0.165-0.33,0.275c-0.11,0.11-0.221,0.202-0.33,0.275c-0.221,0.184-0.439,0.357-0.66,0.522
					s-0.439,0.339-0.66,0.522c-0.074,0.073-0.137,0.129-0.192,0.165s-0.12,0.092-0.192,0.165c-0.109,0.073-0.211,0.156-0.303,0.247
					c-0.092,0.092-0.192,0.175-0.303,0.247c-0.293,0.185-0.614,0.367-0.962,0.551c-0.349,0.184-0.669,0.366-0.963,0.55
					c-0.184,0.146-0.385,0.274-0.604,0.385c-0.221,0.11-0.422,0.22-0.605,0.33c-0.074,0.074-0.129,0.119-0.165,0.138
					s-0.092,0.064-0.165,0.138l-0.22,0.109c-0.147,0.11-0.303,0.22-0.468,0.33c-0.164,0.11-0.321,0.22-0.467,0.33
					c-0.404,0.22-0.779,0.44-1.128,0.66s-0.706,0.477-1.073,0.77c-0.109,0.11-0.238,0.212-0.385,0.303
					c-0.146,0.092-0.312,0.192-0.494,0.303c-0.295,0.184-0.561,0.357-0.798,0.522c-0.239,0.165-0.486,0.376-0.743,0.633
					c-0.33,0.294-0.844,0.531-1.539,0.715c-0.184,0.073-0.34,0.129-0.468,0.165c-0.129,0.037-0.267,0.092-0.413,0.165h-0.109
					c-0.074,0.037-0.174,0.082-0.303,0.137c-0.129,0.056-0.211,0.157-0.248,0.303c-0.109,0.221-0.274,0.385-0.494,0.495
					c-0.221,0.11-0.495,0.202-0.825,0.275c-0.073,0.037-0.156,0.064-0.247,0.082c-0.092,0.02-0.175,0.047-0.248,0.083
					c-0.037,0.037-0.092,0.055-0.165,0.055c-0.073,0.036-0.165,0.073-0.274,0.11c-0.11,0.036-0.221,0.091-0.33,0.165
					c-0.588,0.476-1.229,0.623-1.926,0.439c-0.109-0.074-0.266-0.109-0.467-0.109c-0.202,0-0.395,0.072-0.578,0.22
					c-0.184,0.146-0.376,0.229-0.577,0.247c-0.202,0.019-0.449,0.027-0.743,0.027c-0.184,0-0.375,0-0.576,0
					c-0.203,0-0.413,0.036-0.633,0.11c-0.404,0.146-0.954,0.183-1.65,0.11h-0.605h-0.219h-0.111
					c-0.293-0.11-0.576-0.212-0.852-0.303c-0.275-0.092-0.56-0.175-0.854-0.248c-0.659-0.184-1.319-0.385-1.979-0.604
					c-0.587-0.22-1.183-0.458-1.787-0.715c-0.604-0.256-1.165-0.586-1.678-0.99c-0.185-0.073-0.339-0.174-0.468-0.303
					c-0.129-0.128-0.284-0.283-0.467-0.467c-0.074-0.073-0.138-0.138-0.193-0.193c-0.055-0.055-0.119-0.118-0.191-0.192
					l-0.056-0.055c-0.037-0.036-0.083-0.091-0.138-0.165c-0.055-0.073-0.137-0.128-0.247-0.165c-0.33-0.11-0.604-0.275-0.825-0.495
					s-0.439-0.476-0.66-0.77c-0.22-0.33-0.531-0.642-0.936-0.936c0-0.036-0.018-0.055-0.055-0.055
					c-0.037-0.366-0.146-0.66-0.33-0.88s-0.385-0.421-0.604-0.605l-0.056-0.055c-0.073-0.073-0.137-0.174-0.191-0.303
					c-0.056-0.128-0.102-0.266-0.139-0.412c-0.073-0.11-0.129-0.22-0.164-0.33c-0.037-0.11-0.092-0.22-0.165-0.33
					c-0.294-0.55-0.532-1.128-0.716-1.732c-0.184-0.605-0.312-1.329-0.385-2.173c-0.037-0.146-0.055-0.293-0.055-0.439
					s-0.02-0.293-0.055-0.44c-0.074-0.513-0.138-1.026-0.193-1.54c-0.055-0.513-0.064-1.026-0.027-1.54l0.055-0.055
					c0.073-0.55,0.138-1.1,0.192-1.65c0.055-0.55,0.137-1.081,0.248-1.595c0.183-0.88,0.385-1.769,0.604-2.667
					s0.476-1.806,0.771-2.723c0.109-0.403,0.256-0.779,0.439-1.128c0.184-0.348,0.385-0.724,0.605-1.127
					c0.109-0.221,0.219-0.44,0.33-0.66c0.109-0.221,0.201-0.44,0.274-0.66c0.073-0.184,0.128-0.349,0.165-0.495
					c0.036-0.146,0.072-0.312,0.109-0.495c0.037-0.073,0.056-0.138,0.056-0.192s0.019-0.118,0.055-0.192
					c0-0.036,0.009-0.063,0.028-0.083c0.018-0.018,0.027-0.045,0.027-0.082c0.256-0.44,0.513-0.898,0.77-1.375
					c0.33-0.513,0.668-1.045,1.018-1.595c0.348-0.551,0.705-1.081,1.072-1.596c0.844-1.21,1.732-2.447,2.668-3.712
					c0.935-1.266,1.934-2.576,2.997-3.933c0.293-0.403,0.614-0.778,0.962-1.128c0.349-0.348,0.725-0.705,1.129-1.072
					c0.035-0.073,0.082-0.138,0.137-0.192s0.119-0.118,0.192-0.192c0.366-0.33,0.716-0.66,1.046-0.99
					c0.329-0.33,0.678-0.66,1.045-0.99c0.549-0.513,1.1-1.035,1.649-1.567c0.55-0.531,1.101-1.072,1.649-1.622
					c0.367-0.403,0.752-0.771,1.156-1.101c0.402-0.33,0.805-0.641,1.209-0.935l1.32-1.155c0.477-0.366,0.943-0.724,1.402-1.072
					c0.458-0.348,0.908-0.706,1.348-1.072c0.146-0.11,0.283-0.211,0.412-0.303c0.129-0.091,0.266-0.192,0.413-0.303
					c0.073-0.073,0.183-0.183,0.329-0.33c0.146-0.146,0.221-0.348,0.221-0.604v-0.165c0.184,0.073,0.348,0.129,0.495,0.165
					c0.146,0.037,0.312,0.055,0.495,0.055c0.623,0.037,1.301,0.294,2.035,0.771c0.22,0.184,0.439,0.366,0.66,0.55
					c0.219,0.184,0.439,0.367,0.66,0.55c0.219,0.184,0.439,0.376,0.659,0.577c0.22,0.202,0.44,0.395,0.66,0.578
					c0.146,0.366,0.339,0.688,0.577,0.962c0.238,0.275,0.468,0.542,0.688,0.798c0.184,0.184,0.348,0.367,0.495,0.55
					c0.146,0.184,0.275,0.367,0.386,0.55c0.035,0.037,0.055,0.074,0.055,0.11c0,0.037,0.018,0.074,0.055,0.11
					c0.221,0.403,0.403,0.77,0.551,1.1c0.146,0.33,0.256,0.679,0.329,1.045c-0.036,0.184-0.027,0.357,0.028,0.522
					c0.055,0.165,0.118,0.321,0.191,0.468c0.074,0.109,0.129,0.211,0.166,0.303c0.035,0.092,0.072,0.174,0.109,0.247
					c0,0.33,0,0.651,0,0.963s-0.02,0.651-0.055,1.018c0.035,0.109,0.045,0.22,0.027,0.329c-0.02,0.11-0.027,0.239-0.027,0.386
					c-0.074,0.146-0.082,0.267-0.027,0.357c0.055,0.092,0.1,0.174,0.137,0.247c0.146,0.185,0.146,0.422,0,0.715
					c-0.037,0.11-0.074,0.212-0.109,0.303c-0.037,0.092-0.055,0.212-0.055,0.357v0.056c-0.037,0.109-0.064,0.229-0.083,0.357
					c-0.019,0.129,0.009,0.284,0.083,0.467c0.035,0.037,0.055,0.093,0.055,0.165c-0.258,0.11-0.432,0.267-0.523,0.468
					c-0.092,0.202-0.174,0.395-0.246,0.577c-0.037,0.037-0.056,0.064-0.056,0.083s-0.019,0.046-0.056,0.082
					c-0.073,0.221-0.164,0.45-0.274,0.688c-0.11,0.239-0.202,0.486-0.274,0.743c-0.185,0.403-0.34,0.789-0.469,1.154
					c-0.129,0.367-0.283,0.734-0.467,1.101c-0.074,0.146-0.156,0.274-0.248,0.385s-0.174,0.22-0.247,0.33
					c-0.073,0.037-0.119,0.074-0.138,0.11s-0.064,0.073-0.137,0.109c-0.697-0.109-1.248,0.257-1.65,1.101
					c0,0.036-0.047,0.109-0.138,0.22c-0.092,0.11-0.284,0.165-0.577,0.165c-0.037,0-0.082-0.019-0.138-0.055s-0.12-0.073-0.192-0.11
					c0.293-1.136,0.577-2.236,0.853-3.3c0.274-1.063,0.485-2.182,0.632-3.355c0.074-0.623,0.119-1.328,0.139-2.117
					c0.018-0.788,0.027-1.494,0.027-2.117c0.035-0.257,0.055-0.504,0.055-0.743c0-0.238,0.018-0.485,0.055-0.742
					c0-0.366-0.037-0.642-0.109-0.825c-0.074-0.11-0.129-0.21-0.166-0.303c-0.037-0.091-0.073-0.192-0.109-0.302
					c-0.037-0.036-0.138-0.073-0.303-0.11c-0.165-0.036-0.266-0.073-0.303-0.11l-0.275-0.495l-0.439,0.221
					c-0.074,0-0.129,0.019-0.165,0.055c-0.22,0.074-0.385,0.147-0.495,0.22c-0.109,0.074-0.22,0.147-0.33,0.221
					c-0.109,0.073-0.22,0.146-0.33,0.22c-0.733,0.439-1.375,0.88-1.924,1.32c-0.625,0.514-1.275,1.045-1.953,1.595
					c-0.68,0.55-1.385,1.137-2.117,1.76c-0.99,0.88-1.98,1.815-2.971,2.805c-0.257,0.258-0.439,0.532-0.55,0.825
					c-0.22,0.22-0.349,0.404-0.385,0.55c-0.074,0.074-0.157,0.138-0.247,0.193c-0.092,0.055-0.193,0.119-0.303,0.192
					c-0.074,0.073-0.166,0.146-0.275,0.22c-0.109,0.074-0.22,0.165-0.33,0.275c-0.294,0.329-0.577,0.659-0.853,0.989
					c-0.274,0.33-0.56,0.66-0.853,0.99c-0.514,0.55-0.999,1.109-1.457,1.678c-0.459,0.568-0.927,1.146-1.402,1.732l-0.11,0.11
					c-0.073,0.073-0.147,0.184-0.22,0.329l-0.055,0.11c-0.111,0.074-0.166,0.165-0.166,0.275c-0.074,0.073-0.137,0.146-0.191,0.22
					c-0.056,0.074-0.12,0.146-0.193,0.22l0.055,0.056c-0.073,0.073-0.146,0.201-0.22,0.385s-0.055,0.367,0.056,0.55l-0.056,0.055
					v0.056c-0.073,0.073-0.129,0.129-0.165,0.165c-0.037,0.036-0.092,0.092-0.164,0.165c-0.147,0.22-0.275,0.329-0.386,0.329
					c-0.294-0.035-0.505,0.064-0.632,0.303c-0.129,0.239-0.23,0.395-0.303,0.468c-0.074,0.184-0.119,0.349-0.138,0.495
					s-0.064,0.294-0.138,0.439c-0.037,0.11-0.074,0.221-0.109,0.33c-0.037,0.11-0.074,0.239-0.111,0.386v0.055
					c-0.036,0-0.055,0.019-0.055,0.055c0,0.037-0.019,0.056-0.055,0.056c-0.294,0.146-0.514,0.312-0.66,0.494
					c-0.146,0.185-0.275,0.367-0.385,0.551c-0.109,0.22-0.221,0.385-0.33,0.494c-0.074,0.074-0.156,0.175-0.248,0.303
					c-0.092,0.129-0.101,0.303-0.027,0.522c0,0.185-0.092,0.386-0.274,0.605c-0.074,0.146-0.147,0.294-0.22,0.439
					c-0.074,0.147-0.11,0.312-0.11,0.495c-0.037,0-0.064,0.02-0.083,0.056s-0.064,0.073-0.137,0.109
					c-0.074,0.074-0.119,0.156-0.138,0.248s-0.064,0.174-0.138,0.247c-0.074,0.184-0.129,0.34-0.165,0.468
					c-0.036,0.129-0.073,0.267-0.11,0.412c-0.073,0.147-0.146,0.367-0.22,0.66c-0.073,0.184-0.156,0.357-0.247,0.522
					c-0.092,0.165-0.175,0.321-0.248,0.468c-0.074,0.073-0.129,0.146-0.164,0.22c-0.037,0.074-0.074,0.147-0.111,0.22
					c-0.219,0.33-0.422,0.67-0.604,1.018c-0.184,0.35-0.294,0.779-0.329,1.293c0,0.33-0.093,0.733-0.275,1.21
					c-0.074,0.184-0.129,0.357-0.166,0.522c-0.036,0.165-0.073,0.339-0.109,0.522c-0.367,1.724-0.66,3.374-0.88,4.95
					c0,0.294,0.091,0.679,0.274,1.154c0.184,0.478,0.293,0.862,0.33,1.155c0.074,0.184,0.11,0.34,0.11,0.468
					c0,0.129,0,0.267,0,0.412c0.073,0.734,0.476,1.192,1.21,1.375c0.953,0.221,1.926,0.413,2.915,0.578
					c0.99,0.165,1.979,0.101,2.97-0.192c0.221-0.073,0.449-0.129,0.688-0.165s0.449-0.092,0.633-0.165
					c0.33-0.073,0.65-0.138,0.963-0.193c0.311-0.055,0.613-0.137,0.907-0.247c0.183-0.073,0.385-0.128,0.604-0.165
					c0.221-0.036,0.44-0.091,0.66-0.165c0.586-0.183,1.191-0.375,1.815-0.577c0.623-0.201,1.19-0.485,1.705-0.853
					c0.183-0.11,0.376-0.201,0.577-0.275c0.201-0.073,0.431-0.146,0.688-0.22c0.146-0.073,0.293-0.138,0.439-0.192
					c0.146-0.056,0.294-0.119,0.441-0.192l0.274-0.11c0.696-0.293,1.384-0.604,2.062-0.935c0.678-0.33,1.347-0.66,2.007-0.99
					c0.881-0.44,1.705-0.88,2.476-1.32c0.771-0.439,1.503-0.861,2.2-1.265c0.146-0.073,0.283-0.155,0.412-0.248
					c0.129-0.091,0.229-0.173,0.303-0.247c0.256,0.404,0.431,0.604,0.522,0.604c0.091,0,0.247-0.091,0.468-0.274
					c0.072-0.073,0.146-0.119,0.22-0.138c0.073-0.018,0.146-0.063,0.22-0.138c0.146-0.073,0.293-0.128,0.44-0.165
					c0.146-0.036,0.274-0.091,0.385-0.165c0.293-0.293,0.604-0.531,0.935-0.715c0.33-0.183,0.679-0.366,1.045-0.55
					c0.551-0.22,1.063-0.485,1.541-0.798c0.476-0.311,0.935-0.65,1.375-1.018c0.035-0.072,0.055-0.201,0.055-0.385
					c0.477,0.33,0.953,0.312,1.43-0.055c0.221-0.146,0.348-0.238,0.385-0.275c-0.109,0-0.129,0.037-0.055,0.11
					c-0.294,0.294-0.614,0.541-0.963,0.742c-0.349,0.202-0.688,0.395-1.018,0.578c-0.109,0.073-0.211,0.129-0.302,0.165
					c-0.093,0.036-0.192,0.092-0.303,0.164c-0.33,0.185-0.651,0.395-0.962,0.633c-0.312,0.239-0.633,0.468-0.963,0.688
					c-0.11,0.11-0.229,0.212-0.357,0.303c-0.129,0.092-0.248,0.192-0.357,0.303c-0.037,0-0.092,0.037-0.166,0.109
					c-0.403,0.11-0.761,0.267-1.072,0.468c-0.312,0.202-0.613,0.412-0.907,0.633c-0.44,0.33-0.88,0.604-1.319,0.825
					c-0.221,0.073-0.385,0.146-0.496,0.22c-0.549,0.22-1.118,0.495-1.705,0.825c-0.329,0.146-0.641,0.349-0.934,0.604
					c-0.147,0.074-0.275,0.147-0.386,0.22c-0.11,0.074-0.22,0.147-0.33,0.221c-0.22,0.146-0.514,0.274-0.88,0.385
					c-0.037,0.074-0.165,0.146-0.385,0.22l-0.385,0.22l0.439,1.155l0.439-0.055h0.221c0.293,0,0.514-0.019,0.66-0.055
					c0.256-0.073,0.494-0.146,0.715-0.221c0.22-0.073,0.439-0.146,0.66-0.22c0.146-0.073,0.32-0.165,0.522-0.275
					c0.2-0.109,0.302-0.293,0.302-0.55h0.11c0.036-0.036,0.073-0.055,0.11-0.055c0.036,0,0.072-0.019,0.109-0.055
					c0.623-0.221,1.191-0.477,1.705-0.771c0.073-0.073,0.156-0.118,0.248-0.138c0.091-0.018,0.174-0.063,0.248-0.138
					c0.146-0.072,0.311-0.155,0.494-0.247c0.184-0.091,0.366-0.192,0.551-0.303c0.219-0.146,0.43-0.283,0.632-0.412
					c0.201-0.128,0.431-0.266,0.688-0.413c0.403-0.22,0.778-0.439,1.128-0.659c0.348-0.221,0.723-0.44,1.127-0.66
					c0.073-0.073,0.156-0.119,0.248-0.138c0.091-0.018,0.174-0.063,0.247-0.138c0.036,0,0.063-0.009,0.083-0.027
					c0.018-0.018,0.045-0.027,0.082-0.027c-0.146,0.074-0.275,0.156-0.385,0.247c-0.11,0.092-0.221,0.175-0.33,0.248
					c0.036,0.037,0.055,0.092,0.055,0.165c0.073,0,0.146,0.019,0.221,0.055c0.072,0.037,0.127,0.037,0.164,0
					c0.293-0.183,0.578-0.357,0.854-0.522c0.274-0.165,0.559-0.339,0.852-0.522c0.184-0.11,0.33-0.22,0.44-0.33
					s0.256-0.201,0.44-0.275c0.293-0.146,0.42-0.421,0.385-0.824c0.109-0.036,0.229-0.073,0.357-0.11
					c0.128-0.036,0.247-0.091,0.357-0.165c0.072-0.073,0.165-0.146,0.275-0.22c0.109-0.073,0.237-0.146,0.385-0.221l-0.11,0.11
					c0.33-0.036,0.65-0.155,0.962-0.357c0.312-0.201,0.504-0.448,0.578-0.742c0.146-0.073,0.238-0.128,0.275-0.165l0.109,0.109
					c0.33,0,0.568-0.063,0.715-0.192c0.146-0.128,0.201-0.201,0.166-0.22c-0.037-0.018-0.176,0.092-0.413,0.33
					c-0.239,0.239-0.597,0.742-1.073,1.513c-0.329,0.366-0.788,0.696-1.375,0.989c-0.109,0.074-0.229,0.147-0.357,0.221
					s-0.266,0.165-0.412,0.274H118.574z M77.104,89.59c0.33-0.146,0.523-0.403,0.578-0.77s-0.064-0.696-0.357-0.99
					c-0.037,0.294-0.064,0.577-0.082,0.853C77.223,88.957,77.178,89.26,77.104,89.59z M77.819,87.115
					c0.073-0.073,0.138-0.146,0.192-0.221c0.055-0.072,0.155-0.2,0.303-0.385l-0.551-0.22c-0.073,0.074-0.119,0.165-0.137,0.275
					c-0.02,0.109-0.064,0.201-0.138,0.274C77.489,86.95,77.6,87.042,77.819,87.115z M81.119,77.765
					c-0.404,0.185-0.643,0.367-0.715,0.551c-0.074,0.184-0.02,0.439,0.165,0.77c0.329-0.293,0.522-0.513,0.577-0.66
					C81.201,78.279,81.192,78.059,81.119,77.765z M81.889,75.675c-0.109,0.22-0.201,0.459-0.274,0.715
					c-0.074,0.257-0.147,0.515-0.22,0.771c0,0.037,0.035,0.092,0.109,0.165c0.403-0.66,0.788-1.311,1.155-1.953
					c0.366-0.641,0.751-1.292,1.155-1.952c-0.037-0.036-0.074-0.063-0.11-0.082c-0.037-0.019-0.073-0.046-0.11-0.083
					c-0.256,0.074-0.439,0.22-0.55,0.44c-0.11,0.22-0.202,0.459-0.274,0.715c-0.11,0.257-0.258,0.477-0.44,0.66
					C82.145,75.254,81.999,75.455,81.889,75.675z M83.76,72.815c0,0.036,0.018,0.082,0.055,0.137
					c0.035,0.056,0.072,0.12,0.109,0.192c0.073-0.035,0.146-0.055,0.221-0.055c0.072,0,0.127-0.036,0.164-0.109
					c0.184-0.294,0.33-0.587,0.44-0.881c0.073-0.072,0.11-0.165,0.11-0.274c0-0.11,0.018-0.201,0.055-0.275
					c-0.037-0.036-0.074-0.063-0.109-0.082c-0.037-0.019-0.074-0.046-0.11-0.083c-0.185,0.257-0.349,0.495-0.495,0.715
					C84.053,72.32,83.905,72.559,83.76,72.815z M85.85,70.34c-0.551,0.184-0.862,0.321-0.936,0.413
					c-0.074,0.092,0.018,0.339,0.275,0.742C85.409,71.055,85.629,70.67,85.85,70.34z M111.369,89.04
					c-0.146,0.184-0.294,0.349-0.439,0.495c-0.147,0.146-0.312,0.274-0.496,0.385c-0.184,0.074-0.366,0.147-0.549,0.22
					c-0.185,0.074-0.367,0.147-0.551,0.221c0.073-0.073,0.156-0.138,0.248-0.192c0.091-0.056,0.174-0.119,0.247-0.193
					c0.183-0.146,0.376-0.283,0.577-0.412c0.201-0.128,0.395-0.247,0.578-0.357c0.293-0.184,0.577-0.366,0.852-0.55
					c0.275-0.184,0.559-0.366,0.854-0.55c0.183-0.11,0.375-0.229,0.577-0.358c0.201-0.128,0.413-0.247,0.632-0.357
					c0.221-0.146,0.349-0.256,0.386-0.33c0.146-0.146,0.312-0.256,0.495-0.329s0.439-0.238,0.77-0.495l0.221,0.274
					c-0.184,0-0.312,0.02-0.385,0.056c-0.221,0.109-0.45,0.229-0.688,0.357c-0.24,0.129-0.469,0.284-0.688,0.467
					c-0.295,0.257-0.598,0.515-0.908,0.771c-0.312,0.257-0.633,0.514-0.963,0.77C111.919,88.674,111.662,88.71,111.369,89.04z
					 M118.794,85.85c-0.11,0.074-0.202,0.138-0.274,0.193c-0.074,0.055-0.166,0.119-0.275,0.192
					C118.391,86.089,118.574,85.96,118.794,85.85z"/>
			</g>
		</g>
	</g>
</g>
</svg>
