<?xml version="1.0" encoding="utf-8"?>
<!-- Generator: Adobe Illustrator 16.0.0, SVG Export Plug-In . SVG Version: 6.00 Build 0)  -->
<!DOCTYPE svg PUBLIC "-//W3C//DTD SVG 1.1//EN" "http://www.w3.org/Graphics/SVG/1.1/DTD/svg11.dtd">
<svg version="1.1" id="Layer_1" xmlns="http://www.w3.org/2000/svg" xmlns:xlink="http://www.w3.org/1999/xlink" x="0px" y="0px"
	 width="52px" height="52px" viewBox="24 0 52 52" enable-background="new 24 0 52 52" xml:space="preserve">
<title>BC - Logo</title>
<desc>Created with Sketch.</desc>
<g>
	<path d="M26.524,19C29.544,8.892,38.923,1.5,50,1.5S70.456,8.892,73.476,19h1.04C71.465,8.333,61.633,0.5,50,0.5
		S28.536,8.333,25.485,19H26.524z"/>
	<path d="M73.151,34C69.828,43.592,60.709,50.5,50,50.5c-10.708,0-19.828-6.908-23.152-16.5h-1.056
		C29.157,44.152,38.734,51.5,50,51.5c11.267,0,20.843-7.348,24.207-17.5H73.151z"/>
</g>
<g enable-background="new    ">
	<path d="M44.7,26.125c0.8-0.816,1.504-1.379,2.113-1.688c0.608-0.309,1.183-0.463,1.725-0.463s0.992,0.188,1.35,0.562
		S50.425,25.4,50.425,26c0,1.55-0.65,3.18-1.95,4.888c-1.3,1.708-2.7,2.562-4.2,2.562c-0.45,0-0.875-0.084-1.275-0.25l0.6-1.101
		c0.267,0.067,0.475,0.101,0.625,0.101c1.017,0,1.941-0.566,2.775-1.7c0.833-1.133,1.25-2.25,1.25-3.35
		c0-0.351-0.113-0.638-0.338-0.863c-0.225-0.225-0.512-0.337-0.862-0.337c-0.767,0-1.663,0.616-2.688,1.85s-1.921,2.842-2.688,4.825
		L40.15,32c0.5-2.55,1.5-5.658,3-9.325c1.5-3.666,2.75-6.258,3.75-7.774l1.275,0.449c-1.1,2.051-2.271,4.592-3.513,7.625
		c-1.242,3.034-1.971,5.092-2.188,6.176C43.158,27.95,43.9,26.941,44.7,26.125z"/>
	<path d="M57.85,29.45l0.6,0.5c-0.399,0.917-1.041,1.649-1.924,2.2c-0.885,0.55-1.738,0.824-2.562,0.824
		c-0.826,0-1.51-0.258-2.051-0.774S51.1,30.975,51.1,30.075c0-0.9,0.392-1.875,1.176-2.925c0.783-1.051,1.795-1.917,3.037-2.601
		c1.241-0.683,2.463-1.024,3.662-1.024c0.166,0,0.416,0.017,0.75,0.05L59.65,24.55c-1.834,0.084-3.355,0.642-4.562,1.675
		c-1.209,1.034-1.812,2.134-1.812,3.301c0,0.483,0.149,0.875,0.449,1.175c0.301,0.3,0.691,0.45,1.176,0.45
		C55.666,31.15,56.65,30.584,57.85,29.45z"/>
</g>
</svg>
